<svg xmlns="http://www.w3.org/2000/svg" width="1440" height="900" viewBox="0 0 1440 900" fill="none">
  <rect width="1440" height="900" fill="#F4F4F5"/>
  <rect x="0" y="0" width="1440" height="72" fill="#E4E4E7" stroke="#A1A1AA"/>
  <text x="48" y="42" font-family="system-ui,sans-serif" font-size="12" fill="#52525B">HEADER (same as Home)</text>

  <rect x="120" y="100" width="1200" height="200" fill="#E4E4E7" stroke="#71717A" stroke-width="2"/>
  <text x="140" y="130" font-family="system-ui,sans-serif" font-size="14" fill="#3F3F46">BLOCK: HERO</text>
  <rect x="140" y="150" width="120" height="14" fill="#D4D4D8"/>
  <rect x="140" y="180" width="500" height="36" fill="#D4D4D8"/>
  <text x="145" y="203" font-family="system-ui,sans-serif" font-size="14" fill="#27272A">H1</text>
  <rect x="140" y="230" width="800" height="48" fill="#D4D4D8"/>
  <text x="145" y="255" font-family="system-ui,sans-serif" font-size="11" fill="#52525B">lead</text>

  <rect x="120" y="330" width="580" height="280" fill="#E4E4E7" stroke="#71717A"/>
  <text x="140" y="365" font-family="system-ui,sans-serif" font-size="14" fill="#27272A">COL 1 — title</text>
  <rect x="140" y="385" width="500" height="180" fill="#D4D4D8"/>
  <text x="150" y="420" font-family="system-ui,sans-serif" font-size="12" fill="#52525B">body text area</text>

  <rect x="740" y="330" width="580" height="280" fill="#E4E4E7" stroke="#71717A"/>
  <text x="760" y="365" font-family="system-ui,sans-serif" font-size="14" fill="#27272A">COL 2 — title</text>
  <rect x="760" y="385" width="500" height="180" fill="#D4D4D8"/>
  <text x="770" y="420" font-family="system-ui,sans-serif" font-size="12" fill="#52525B">body text area</text>

  <rect x="120" y="640" width="200" height="44" fill="#A1A1AA"/>
  <text x="150" y="668" font-family="system-ui,sans-serif" font-size="13" fill="#FAFAFA">BTN primary</text>
  <rect x="340" y="640" width="200" height="44" fill="#D4D4D8" stroke="#71717A"/>
  <text x="370" y="668" font-family="system-ui,sans-serif" font-size="13" fill="#3F3F46">BTN secondary</text>

  <rect x="0" y="840" width="1440" height="60" fill="#E4E4E7" stroke="#A1A1AA"/>
  <text x="48" y="875" font-family="system-ui,sans-serif" font-size="12" fill="#52525B">FOOTER</text>
</svg>
