<svg xmlns="http://www.w3.org/2000/svg" width="1440" height="900" viewBox="0 0 1440 900" fill="none">
  <rect width="1440" height="900" fill="#F4F4F5"/>
  <rect x="0" y="0" width="1440" height="72" fill="#E4E4E7" stroke="#A1A1AA"/>
  <text x="48" y="42" font-family="system-ui,sans-serif" font-size="12" fill="#52525B">HEADER</text>

  <!-- centered card -->
  <rect x="500" y="160" width="440" height="520" fill="#E4E4E7" stroke="#71717A" stroke-width="2"/>
  <text x="520" y="195" font-family="system-ui,sans-serif" font-size="14" fill="#3F3F46">BLOCK: LOGIN CARD</text>
  <rect x="520" y="220" width="120" height="14" fill="#D4D4D8"/>
  <rect x="520" y="250" width="280" height="32" fill="#D4D4D8"/>
  <text x="525" y="272" font-family="system-ui,sans-serif" font-size="14" fill="#27272A">H1</text>
  <rect x="520" y="300" width="380" height="48" fill="#D4D4D8"/>
  <text x="525" y="328" font-family="system-ui,sans-serif" font-size="11" fill="#52525B">lead</text>

  <text x="520" y="380" font-family="system-ui,sans-serif" font-size="11" fill="#52525B">label field 1</text>
  <rect x="520" y="390" width="400" height="44" fill="#FAFAFA" stroke="#71717A"/>
  <text x="530" y="417" font-family="system-ui,sans-serif" font-size="12" fill="#A1A1AA">input</text>

  <text x="520" y="470" font-family="system-ui,sans-serif" font-size="11" fill="#52525B">label field 2</text>
  <rect x="520" y="480" width="400" height="44" fill="#FAFAFA" stroke="#71717A"/>
  <text x="530" y="507" font-family="system-ui,sans-serif" font-size="12" fill="#A1A1AA">input</text>

  <rect x="520" y="550" width="400" height="48" fill="#A1A1AA"/>
  <text x="660" y="580" font-family="system-ui,sans-serif" font-size="13" fill="#FAFAFA">BTN submit</text>

  <rect x="520" y="620" width="400" height="40" fill="#D4D4D8" stroke="#A1A1AA"/>
  <text x="530" y="645" font-family="system-ui,sans-serif" font-size="11" fill="#52525B">note / callout</text>

  <rect x="0" y="840" width="1440" height="60" fill="#E4E4E7" stroke="#A1A1AA"/>
  <text x="48" y="875" font-family="system-ui,sans-serif" font-size="12" fill="#52525B">FOOTER</text>
</svg>
